<?xml version="1.0" encoding="UTF-8"?>
<svg xmlns="http://www.w3.org/2000/svg" xmlns:xlink="http://www.w3.org/1999/xlink" width="504pt" height="347pt" viewBox="0 0 504 347">
<defs>
<g>
<g id="glyph-0-0">
<path d="M 3.265625 -7.078125 L 3.265625 -6.8125 L 0.625 -6.8125 L 0.625 -7.078125 Z M 0.71875 -7.078125 L 0.71875 0 L 0.5 0 L 0.5 -7.078125 Z M 3.390625 -7.078125 L 3.390625 0 L 3.171875 0 L 3.171875 -7.078125 Z M 3.265625 -0.265625 L 3.265625 0 L 0.625 0 L 0.625 -0.265625 Z M 3.265625 -6.9375 L 0.84375 -0.140625 L 0.609375 -0.140625 L 3.03125 -6.9375 Z M 3.03125 -0.140625 L 0.609375 -6.9375 L 0.84375 -6.9375 L 3.265625 -0.140625 Z M 3.03125 -0.140625 "/>
</g>
<g id="glyph-0-1">
<path d="M 4.46875 -7.078125 L 4.46875 -6.578125 L 2.046875 0 L 1.140625 0 L 3.578125 -6.34375 L 0.421875 -6.34375 L 0.421875 -7.078125 Z M 4.46875 -7.078125 "/>
</g>
<g id="glyph-0-2">
<path d="M 4.34375 -4.109375 L 4.34375 -3.015625 C 4.34375 -2.441406 4.296875 -1.953125 4.203125 -1.546875 C 4.117188 -1.148438 3.992188 -0.832031 3.828125 -0.59375 C 3.671875 -0.351562 3.472656 -0.175781 3.234375 -0.0625 C 3.003906 0.0390625 2.742188 0.09375 2.453125 0.09375 C 2.234375 0.09375 2.023438 0.0625 1.828125 0 C 1.628906 -0.0703125 1.453125 -0.179688 1.296875 -0.328125 C 1.140625 -0.484375 1.003906 -0.679688 0.890625 -0.921875 C 0.785156 -1.160156 0.703125 -1.453125 0.640625 -1.796875 C 0.585938 -2.148438 0.5625 -2.554688 0.5625 -3.015625 L 0.5625 -4.109375 C 0.5625 -4.679688 0.601562 -5.160156 0.6875 -5.546875 C 0.78125 -5.941406 0.910156 -6.257812 1.078125 -6.5 C 1.242188 -6.738281 1.441406 -6.910156 1.671875 -7.015625 C 1.910156 -7.117188 2.171875 -7.171875 2.453125 -7.171875 C 2.679688 -7.171875 2.894531 -7.132812 3.09375 -7.0625 C 3.289062 -7 3.460938 -6.894531 3.609375 -6.75 C 3.765625 -6.613281 3.894531 -6.425781 4 -6.1875 C 4.113281 -5.945312 4.195312 -5.65625 4.25 -5.3125 C 4.3125 -4.96875 4.34375 -4.566406 4.34375 -4.109375 Z M 3.5 -2.875 L 3.5 -4.25 C 3.5 -4.570312 3.484375 -4.851562 3.453125 -5.09375 C 3.421875 -5.332031 3.375 -5.535156 3.3125 -5.703125 C 3.257812 -5.878906 3.191406 -6.019531 3.109375 -6.125 C 3.023438 -6.226562 2.925781 -6.304688 2.8125 -6.359375 C 2.707031 -6.410156 2.585938 -6.4375 2.453125 -6.4375 C 2.285156 -6.4375 2.140625 -6.394531 2.015625 -6.3125 C 1.890625 -6.238281 1.78125 -6.113281 1.6875 -5.9375 C 1.601562 -5.769531 1.535156 -5.546875 1.484375 -5.265625 C 1.441406 -4.984375 1.421875 -4.644531 1.421875 -4.25 L 1.421875 -2.875 C 1.421875 -2.5625 1.4375 -2.28125 1.46875 -2.03125 C 1.5 -1.789062 1.539062 -1.582031 1.59375 -1.40625 C 1.65625 -1.226562 1.726562 -1.082031 1.8125 -0.96875 C 1.894531 -0.851562 1.988281 -0.769531 2.09375 -0.71875 C 2.207031 -0.664062 2.328125 -0.640625 2.453125 -0.640625 C 2.628906 -0.640625 2.78125 -0.679688 2.90625 -0.765625 C 3.03125 -0.847656 3.132812 -0.976562 3.21875 -1.15625 C 3.3125 -1.34375 3.378906 -1.578125 3.421875 -1.859375 C 3.472656 -2.140625 3.5 -2.476562 3.5 -2.875 Z M 3.5 -2.875 "/>
</g>
<g id="glyph-0-3">
<path d="M 0.703125 -0.46875 C 0.703125 -0.625 0.75 -0.753906 0.84375 -0.859375 C 0.9375 -0.960938 1.078125 -1.015625 1.265625 -1.015625 C 1.441406 -1.015625 1.578125 -0.960938 1.671875 -0.859375 C 1.765625 -0.753906 1.8125 -0.625 1.8125 -0.46875 C 1.8125 -0.320312 1.765625 -0.195312 1.671875 -0.09375 C 1.578125 0.0078125 1.441406 0.0625 1.265625 0.0625 C 1.078125 0.0625 0.9375 0.0078125 0.84375 -0.09375 C 0.75 -0.195312 0.703125 -0.320312 0.703125 -0.46875 Z M 0.703125 -0.46875 "/>
</g>
<g id="glyph-0-4">
<path d="M 1.609375 -3.375 L 0.921875 -3.546875 L 1.21875 -7.078125 L 4.3125 -7.078125 L 4.3125 -6.25 L 1.953125 -6.25 L 1.78125 -4.328125 C 1.894531 -4.398438 2.03125 -4.46875 2.1875 -4.53125 C 2.34375 -4.59375 2.519531 -4.625 2.71875 -4.625 C 3 -4.625 3.25 -4.566406 3.46875 -4.453125 C 3.6875 -4.347656 3.867188 -4.191406 4.015625 -3.984375 C 4.171875 -3.773438 4.289062 -3.523438 4.375 -3.234375 C 4.457031 -2.941406 4.5 -2.613281 4.5 -2.25 C 4.5 -1.914062 4.457031 -1.601562 4.375 -1.3125 C 4.300781 -1.03125 4.179688 -0.78125 4.015625 -0.5625 C 3.859375 -0.351562 3.660156 -0.191406 3.421875 -0.078125 C 3.179688 0.0351562 2.898438 0.09375 2.578125 0.09375 C 2.335938 0.09375 2.109375 0.0546875 1.890625 -0.015625 C 1.679688 -0.0976562 1.488281 -0.21875 1.3125 -0.375 C 1.144531 -0.539062 1.007812 -0.742188 0.90625 -0.984375 C 0.800781 -1.234375 0.734375 -1.523438 0.703125 -1.859375 L 1.515625 -1.859375 C 1.546875 -1.597656 1.609375 -1.375 1.703125 -1.1875 C 1.796875 -1.007812 1.914062 -0.875 2.0625 -0.78125 C 2.207031 -0.6875 2.378906 -0.640625 2.578125 -0.640625 C 2.742188 -0.640625 2.890625 -0.675781 3.015625 -0.75 C 3.148438 -0.820312 3.265625 -0.925781 3.359375 -1.0625 C 3.453125 -1.207031 3.519531 -1.378906 3.5625 -1.578125 C 3.613281 -1.773438 3.640625 -2 3.640625 -2.25 C 3.640625 -2.46875 3.613281 -2.671875 3.5625 -2.859375 C 3.519531 -3.054688 3.445312 -3.222656 3.34375 -3.359375 C 3.25 -3.503906 3.132812 -3.613281 3 -3.6875 C 2.863281 -3.769531 2.703125 -3.8125 2.515625 -3.8125 C 2.273438 -3.8125 2.097656 -3.769531 1.984375 -3.6875 C 1.867188 -3.613281 1.742188 -3.507812 1.609375 -3.375 Z M 1.609375 -3.375 "/>
</g>
<g id="glyph-0-5">
<path d="M 3.125 -7.109375 L 3.125 0 L 2.265625 0 L 2.265625 -6 L 0.78125 -5.328125 L 0.78125 -6.140625 L 3 -7.109375 Z M 3.125 -7.109375 "/>
</g>
<g id="glyph-0-6">
<path d="M 1.5 -1.0625 L 1.5 -0.34375 C 1.5 -0.0507812 1.421875 0.253906 1.265625 0.578125 C 1.117188 0.910156 0.914062 1.191406 0.65625 1.421875 L 0.140625 1.0625 C 0.242188 0.914062 0.332031 0.769531 0.40625 0.625 C 0.476562 0.476562 0.53125 0.328125 0.5625 0.171875 C 0.601562 0.015625 0.625 -0.148438 0.625 -0.328125 L 0.625 -1.0625 Z M 1.5 -1.0625 "/>
</g>
<g id="glyph-0-7">
<path d="M 1.34375 -0.75 L 1.421875 -0.75 C 1.859375 -0.75 2.207031 -0.820312 2.46875 -0.96875 C 2.738281 -1.113281 2.9375 -1.304688 3.0625 -1.546875 C 3.195312 -1.796875 3.285156 -2.078125 3.328125 -2.390625 C 3.378906 -2.703125 3.40625 -3.019531 3.40625 -3.34375 L 3.40625 -4.4375 C 3.40625 -4.75 3.375 -5.03125 3.3125 -5.28125 C 3.257812 -5.53125 3.179688 -5.738281 3.078125 -5.90625 C 2.984375 -6.082031 2.875 -6.210938 2.75 -6.296875 C 2.625 -6.378906 2.492188 -6.421875 2.359375 -6.421875 C 2.203125 -6.421875 2.054688 -6.378906 1.921875 -6.296875 C 1.796875 -6.222656 1.691406 -6.109375 1.609375 -5.953125 C 1.523438 -5.804688 1.457031 -5.628906 1.40625 -5.421875 C 1.363281 -5.222656 1.34375 -5.007812 1.34375 -4.78125 C 1.34375 -4.570312 1.363281 -4.367188 1.40625 -4.171875 C 1.445312 -3.972656 1.503906 -3.789062 1.578125 -3.625 C 1.660156 -3.46875 1.765625 -3.34375 1.890625 -3.25 C 2.015625 -3.15625 2.164062 -3.109375 2.34375 -3.109375 C 2.488281 -3.109375 2.625 -3.148438 2.75 -3.234375 C 2.882812 -3.316406 3.007812 -3.425781 3.125 -3.5625 C 3.238281 -3.695312 3.328125 -3.851562 3.390625 -4.03125 C 3.460938 -4.207031 3.507812 -4.390625 3.53125 -4.578125 L 3.921875 -4.578125 C 3.921875 -4.304688 3.878906 -4.039062 3.796875 -3.78125 C 3.710938 -3.519531 3.59375 -3.28125 3.4375 -3.0625 C 3.28125 -2.851562 3.097656 -2.679688 2.890625 -2.546875 C 2.679688 -2.421875 2.453125 -2.359375 2.203125 -2.359375 C 1.898438 -2.359375 1.640625 -2.425781 1.421875 -2.5625 C 1.210938 -2.707031 1.039062 -2.890625 0.90625 -3.109375 C 0.769531 -3.335938 0.664062 -3.59375 0.59375 -3.875 C 0.53125 -4.15625 0.5 -4.441406 0.5 -4.734375 C 0.5 -5.066406 0.535156 -5.378906 0.609375 -5.671875 C 0.691406 -5.972656 0.8125 -6.234375 0.96875 -6.453125 C 1.125 -6.679688 1.316406 -6.859375 1.546875 -6.984375 C 1.785156 -7.109375 2.054688 -7.171875 2.359375 -7.171875 C 2.710938 -7.171875 3.007812 -7.085938 3.25 -6.921875 C 3.488281 -6.765625 3.679688 -6.550781 3.828125 -6.28125 C 3.984375 -6.007812 4.09375 -5.703125 4.15625 -5.359375 C 4.226562 -5.015625 4.265625 -4.664062 4.265625 -4.3125 L 4.265625 -3.984375 C 4.265625 -3.617188 4.25 -3.242188 4.21875 -2.859375 C 4.1875 -2.484375 4.113281 -2.125 4 -1.78125 C 3.894531 -1.4375 3.738281 -1.128906 3.53125 -0.859375 C 3.332031 -0.597656 3.054688 -0.382812 2.703125 -0.21875 C 2.359375 -0.0625 1.929688 0.015625 1.421875 0.015625 L 1.34375 0.015625 Z M 1.34375 -0.75 "/>
</g>
<g id="glyph-1-0">
<path d="M 3.453125 -7.484375 L 3.453125 -7.203125 L 0.65625 -7.203125 L 0.65625 -7.484375 Z M 0.765625 -7.484375 L 0.765625 0 L 0.53125 0 L 0.53125 -7.484375 Z M 3.59375 -7.484375 L 3.59375 0 L 3.359375 0 L 3.359375 -7.484375 Z M 3.453125 -0.28125 L 3.453125 0 L 0.65625 0 L 0.65625 -0.28125 Z M 3.453125 -7.328125 L 0.90625 -0.15625 L 0.640625 -0.15625 L 3.203125 -7.328125 Z M 3.203125 -0.15625 L 0.640625 -7.328125 L 0.90625 -7.328125 L 3.453125 -0.15625 Z M 3.203125 -0.15625 "/>
</g>
<g id="glyph-1-1">
<path d="M 4.828125 -0.8125 L 4.828125 0 L 1.578125 0 L 1.578125 -0.8125 Z M 1.75 -7.484375 L 1.75 0 L 0.8125 0 L 0.8125 -7.484375 Z M 4.390625 -4.265625 L 4.390625 -3.453125 L 1.578125 -3.453125 L 1.578125 -4.265625 Z M 4.78125 -7.484375 L 4.78125 -6.671875 L 1.578125 -6.671875 L 1.578125 -7.484375 Z M 4.78125 -7.484375 "/>
</g>
<g id="glyph-1-2">
<path d="M 4.328125 -7.484375 L 5.28125 -7.484375 L 5.28125 -2.21875 C 5.28125 -1.65625 5.171875 -1.203125 4.953125 -0.859375 C 4.734375 -0.523438 4.445312 -0.28125 4.09375 -0.125 C 3.75 0.0273438 3.375 0.109375 2.96875 0.109375 C 2.53125 0.109375 2.140625 0.0273438 1.796875 -0.125 C 1.453125 -0.28125 1.175781 -0.523438 0.96875 -0.859375 C 0.769531 -1.203125 0.671875 -1.65625 0.671875 -2.21875 L 0.671875 -7.484375 L 1.609375 -7.484375 L 1.609375 -2.21875 C 1.609375 -1.820312 1.660156 -1.515625 1.765625 -1.296875 C 1.878906 -1.078125 2.039062 -0.921875 2.25 -0.828125 C 2.457031 -0.742188 2.695312 -0.703125 2.96875 -0.703125 C 3.25 -0.703125 3.488281 -0.742188 3.6875 -0.828125 C 3.894531 -0.921875 4.050781 -1.078125 4.15625 -1.296875 C 4.269531 -1.515625 4.328125 -1.820312 4.328125 -2.21875 Z M 4.328125 -7.484375 "/>
</g>
<g id="glyph-1-3">
<path d="M 2.375 -3.578125 L 2.375 -2.796875 L 0.25 -2.796875 L 0.25 -3.578125 Z M 2.375 -3.578125 "/>
</g>
<g id="glyph-1-4">
<path d="M 3.3125 -7.53125 L 3.3125 0 L 2.40625 0 L 2.40625 -6.34375 L 0.828125 -5.640625 L 0.828125 -6.5 L 3.171875 -7.53125 Z M 3.3125 -7.53125 "/>
</g>
<g id="glyph-1-5">
<path d="M 1.765625 -4.21875 L 2.359375 -4.21875 C 2.617188 -4.21875 2.832031 -4.269531 3 -4.375 C 3.175781 -4.488281 3.304688 -4.640625 3.390625 -4.828125 C 3.472656 -5.023438 3.515625 -5.242188 3.515625 -5.484375 C 3.515625 -5.773438 3.472656 -6.019531 3.390625 -6.21875 C 3.316406 -6.414062 3.207031 -6.5625 3.0625 -6.65625 C 2.914062 -6.757812 2.726562 -6.8125 2.5 -6.8125 C 2.289062 -6.8125 2.101562 -6.757812 1.9375 -6.65625 C 1.78125 -6.550781 1.660156 -6.398438 1.578125 -6.203125 C 1.492188 -6.015625 1.453125 -5.789062 1.453125 -5.53125 L 0.546875 -5.53125 C 0.546875 -5.90625 0.625 -6.25 0.78125 -6.5625 C 0.9375 -6.875 1.160156 -7.125 1.453125 -7.3125 C 1.753906 -7.5 2.101562 -7.59375 2.5 -7.59375 C 2.875 -7.59375 3.207031 -7.507812 3.5 -7.34375 C 3.789062 -7.1875 4.015625 -6.953125 4.171875 -6.640625 C 4.335938 -6.328125 4.421875 -5.9375 4.421875 -5.46875 C 4.421875 -5.28125 4.382812 -5.078125 4.3125 -4.859375 C 4.25 -4.648438 4.140625 -4.453125 3.984375 -4.265625 C 3.828125 -4.078125 3.625 -3.925781 3.375 -3.8125 C 3.132812 -3.695312 2.835938 -3.640625 2.484375 -3.640625 L 1.765625 -3.640625 Z M 1.765625 -3.4375 L 1.765625 -4 L 2.484375 -4 C 2.898438 -4 3.238281 -3.941406 3.5 -3.828125 C 3.769531 -3.710938 3.976562 -3.5625 4.125 -3.375 C 4.269531 -3.1875 4.367188 -2.976562 4.421875 -2.75 C 4.484375 -2.53125 4.515625 -2.3125 4.515625 -2.09375 C 4.515625 -1.738281 4.460938 -1.425781 4.359375 -1.15625 C 4.253906 -0.882812 4.109375 -0.65625 3.921875 -0.46875 C 3.742188 -0.28125 3.53125 -0.132812 3.28125 -0.03125 C 3.039062 0.0585938 2.78125 0.109375 2.5 0.109375 C 2.21875 0.109375 1.957031 0.0585938 1.71875 -0.03125 C 1.476562 -0.125 1.265625 -0.257812 1.078125 -0.4375 C 0.898438 -0.613281 0.757812 -0.832031 0.65625 -1.09375 C 0.550781 -1.351562 0.5 -1.648438 0.5 -1.984375 L 1.421875 -1.984375 C 1.421875 -1.722656 1.460938 -1.492188 1.546875 -1.296875 C 1.628906 -1.097656 1.75 -0.941406 1.90625 -0.828125 C 2.070312 -0.722656 2.269531 -0.671875 2.5 -0.671875 C 2.71875 -0.671875 2.910156 -0.722656 3.078125 -0.828125 C 3.242188 -0.929688 3.367188 -1.082031 3.453125 -1.28125 C 3.546875 -1.488281 3.59375 -1.75 3.59375 -2.0625 C 3.59375 -2.375 3.539062 -2.628906 3.4375 -2.828125 C 3.34375 -3.035156 3.203125 -3.1875 3.015625 -3.28125 C 2.828125 -3.382812 2.609375 -3.4375 2.359375 -3.4375 Z M 1.765625 -3.4375 "/>
</g>
<g id="glyph-2-0">
<path d="M 2.953125 -6.40625 L 2.953125 -6.15625 L 0.5625 -6.15625 L 0.5625 -6.40625 Z M 0.65625 -6.40625 L 0.65625 0 L 0.453125 0 L 0.453125 -6.40625 Z M 3.078125 -6.40625 L 3.078125 0 L 2.875 0 L 2.875 -6.40625 Z M 2.953125 -0.234375 L 2.953125 0 L 0.5625 0 L 0.5625 -0.234375 Z M 2.953125 -6.265625 L 0.765625 -0.125 L 0.546875 -0.125 L 2.75 -6.265625 Z M 2.75 -0.125 L 0.546875 -6.265625 L 0.765625 -6.265625 L 2.953125 -0.125 Z M 2.75 -0.125 "/>
</g>
<g id="glyph-2-1">
<path d="M 3.09375 -0.59375 C 3.238281 -0.59375 3.378906 -0.601562 3.515625 -0.625 C 3.648438 -0.65625 3.78125 -0.695312 3.90625 -0.75 L 3.984375 -0.046875 C 3.847656 -0.00390625 3.703125 0.0234375 3.546875 0.046875 C 3.398438 0.078125 3.25 0.09375 3.09375 0.09375 C 2.800781 0.09375 2.53125 0.0390625 2.28125 -0.0625 C 2.039062 -0.175781 1.832031 -0.335938 1.65625 -0.546875 C 1.476562 -0.765625 1.335938 -1.03125 1.234375 -1.34375 C 1.140625 -1.664062 1.09375 -2.039062 1.09375 -2.46875 L 1.09375 -3.921875 C 1.09375 -4.347656 1.140625 -4.722656 1.234375 -5.046875 C 1.335938 -5.367188 1.472656 -5.632812 1.640625 -5.84375 C 1.816406 -6.0625 2.023438 -6.222656 2.265625 -6.328125 C 2.515625 -6.429688 2.785156 -6.484375 3.078125 -6.484375 C 3.242188 -6.484375 3.398438 -6.46875 3.546875 -6.4375 C 3.691406 -6.414062 3.835938 -6.382812 3.984375 -6.34375 L 3.90625 -5.640625 C 3.78125 -5.691406 3.648438 -5.726562 3.515625 -5.75 C 3.378906 -5.78125 3.238281 -5.796875 3.09375 -5.796875 C 2.90625 -5.796875 2.738281 -5.753906 2.59375 -5.671875 C 2.445312 -5.597656 2.320312 -5.484375 2.21875 -5.328125 C 2.113281 -5.179688 2.035156 -4.988281 1.984375 -4.75 C 1.929688 -4.519531 1.90625 -4.25 1.90625 -3.9375 L 1.90625 -2.46875 C 1.90625 -2.144531 1.929688 -1.863281 1.984375 -1.625 C 2.035156 -1.394531 2.113281 -1.203125 2.21875 -1.046875 C 2.332031 -0.898438 2.460938 -0.785156 2.609375 -0.703125 C 2.753906 -0.628906 2.914062 -0.59375 3.09375 -0.59375 Z M 3.265625 -4.078125 L 3.265625 -3.53125 L 0.453125 -3.53125 L 0.453125 -4.078125 Z M 3.265625 -2.921875 L 3.265625 -2.375 L 0.453125 -2.375 L 0.453125 -2.921875 Z M 3.265625 -2.921875 "/>
</g>
<g id="glyph-2-2">
<path d="M 3.921875 -1.734375 C 3.921875 -1.335938 3.847656 -1.003906 3.703125 -0.734375 C 3.554688 -0.460938 3.351562 -0.253906 3.09375 -0.109375 C 2.832031 0.0234375 2.539062 0.09375 2.21875 0.09375 C 1.894531 0.09375 1.601562 0.0234375 1.34375 -0.109375 C 1.09375 -0.253906 0.890625 -0.460938 0.734375 -0.734375 C 0.585938 -1.003906 0.515625 -1.335938 0.515625 -1.734375 C 0.515625 -1.984375 0.554688 -2.210938 0.640625 -2.421875 C 0.722656 -2.640625 0.835938 -2.828125 0.984375 -2.984375 C 1.140625 -3.140625 1.320312 -3.257812 1.53125 -3.34375 C 1.738281 -3.4375 1.96875 -3.484375 2.21875 -3.484375 C 2.550781 -3.484375 2.84375 -3.40625 3.09375 -3.25 C 3.351562 -3.101562 3.554688 -2.894531 3.703125 -2.625 C 3.847656 -2.363281 3.921875 -2.066406 3.921875 -1.734375 Z M 3.15625 -1.75 C 3.15625 -1.988281 3.113281 -2.195312 3.03125 -2.375 C 2.957031 -2.5625 2.847656 -2.707031 2.703125 -2.8125 C 2.566406 -2.914062 2.40625 -2.96875 2.21875 -2.96875 C 2.019531 -2.96875 1.851562 -2.914062 1.71875 -2.8125 C 1.582031 -2.707031 1.472656 -2.5625 1.390625 -2.375 C 1.316406 -2.195312 1.28125 -1.988281 1.28125 -1.75 C 1.28125 -1.5 1.316406 -1.285156 1.390625 -1.109375 C 1.460938 -0.941406 1.566406 -0.8125 1.703125 -0.71875 C 1.847656 -0.625 2.019531 -0.578125 2.21875 -0.578125 C 2.414062 -0.578125 2.582031 -0.625 2.71875 -0.71875 C 2.863281 -0.8125 2.972656 -0.941406 3.046875 -1.109375 C 3.117188 -1.285156 3.15625 -1.5 3.15625 -1.75 Z M 3.8125 -4.734375 C 3.8125 -4.421875 3.738281 -4.140625 3.59375 -3.890625 C 3.457031 -3.640625 3.269531 -3.441406 3.03125 -3.296875 C 2.800781 -3.160156 2.53125 -3.09375 2.21875 -3.09375 C 1.914062 -3.09375 1.640625 -3.160156 1.390625 -3.296875 C 1.148438 -3.441406 0.960938 -3.640625 0.828125 -3.890625 C 0.703125 -4.140625 0.640625 -4.421875 0.640625 -4.734375 C 0.640625 -5.109375 0.707031 -5.425781 0.84375 -5.6875 C 0.976562 -5.945312 1.164062 -6.144531 1.40625 -6.28125 C 1.644531 -6.414062 1.914062 -6.484375 2.21875 -6.484375 C 2.53125 -6.484375 2.804688 -6.414062 3.046875 -6.28125 C 3.285156 -6.144531 3.472656 -5.945312 3.609375 -5.6875 C 3.742188 -5.425781 3.8125 -5.109375 3.8125 -4.734375 Z M 3.03125 -4.71875 C 3.03125 -4.9375 2.992188 -5.125 2.921875 -5.28125 C 2.859375 -5.445312 2.765625 -5.578125 2.640625 -5.671875 C 2.523438 -5.765625 2.382812 -5.8125 2.21875 -5.8125 C 2.0625 -5.8125 1.921875 -5.765625 1.796875 -5.671875 C 1.671875 -5.585938 1.570312 -5.460938 1.5 -5.296875 C 1.4375 -5.140625 1.40625 -4.945312 1.40625 -4.71875 C 1.40625 -4.5 1.4375 -4.304688 1.5 -4.140625 C 1.570312 -3.972656 1.671875 -3.84375 1.796875 -3.75 C 1.921875 -3.664062 2.0625 -3.625 2.21875 -3.625 C 2.382812 -3.625 2.523438 -3.664062 2.640625 -3.75 C 2.765625 -3.84375 2.859375 -3.972656 2.921875 -4.140625 C 2.992188 -4.304688 3.03125 -4.5 3.03125 -4.71875 Z M 3.03125 -4.71875 "/>
</g>
<g id="glyph-2-3">
<path d="M 3.9375 -3.703125 L 3.9375 -2.734375 C 3.9375 -2.210938 3.894531 -1.769531 3.8125 -1.40625 C 3.726562 -1.039062 3.613281 -0.75 3.46875 -0.53125 C 3.320312 -0.3125 3.140625 -0.148438 2.921875 -0.046875 C 2.710938 0.0429688 2.476562 0.09375 2.21875 0.09375 C 2.019531 0.09375 1.832031 0.0625 1.65625 0 C 1.476562 -0.0625 1.316406 -0.160156 1.171875 -0.296875 C 1.035156 -0.429688 0.914062 -0.609375 0.8125 -0.828125 C 0.707031 -1.054688 0.628906 -1.328125 0.578125 -1.640625 C 0.523438 -1.953125 0.5 -2.316406 0.5 -2.734375 L 0.5 -3.703125 C 0.5 -4.234375 0.539062 -4.675781 0.625 -5.03125 C 0.707031 -5.382812 0.820312 -5.664062 0.96875 -5.875 C 1.125 -6.09375 1.304688 -6.25 1.515625 -6.34375 C 1.722656 -6.4375 1.957031 -6.484375 2.21875 -6.484375 C 2.425781 -6.484375 2.617188 -6.453125 2.796875 -6.390625 C 2.972656 -6.335938 3.128906 -6.242188 3.265625 -6.109375 C 3.410156 -5.984375 3.53125 -5.8125 3.625 -5.59375 C 3.726562 -5.375 3.804688 -5.109375 3.859375 -4.796875 C 3.910156 -4.492188 3.9375 -4.128906 3.9375 -3.703125 Z M 3.15625 -2.609375 L 3.15625 -3.84375 C 3.15625 -4.132812 3.140625 -4.390625 3.109375 -4.609375 C 3.085938 -4.828125 3.050781 -5.007812 3 -5.15625 C 2.945312 -5.3125 2.882812 -5.4375 2.8125 -5.53125 C 2.738281 -5.632812 2.648438 -5.707031 2.546875 -5.75 C 2.453125 -5.800781 2.34375 -5.828125 2.21875 -5.828125 C 2.070312 -5.828125 1.9375 -5.789062 1.8125 -5.71875 C 1.695312 -5.644531 1.597656 -5.53125 1.515625 -5.375 C 1.441406 -5.21875 1.382812 -5.015625 1.34375 -4.765625 C 1.300781 -4.515625 1.28125 -4.207031 1.28125 -3.84375 L 1.28125 -2.609375 C 1.28125 -2.316406 1.289062 -2.0625 1.3125 -1.84375 C 1.34375 -1.625 1.382812 -1.429688 1.4375 -1.265625 C 1.488281 -1.109375 1.550781 -0.976562 1.625 -0.875 C 1.707031 -0.769531 1.796875 -0.691406 1.890625 -0.640625 C 1.992188 -0.597656 2.101562 -0.578125 2.21875 -0.578125 C 2.375 -0.578125 2.507812 -0.613281 2.625 -0.6875 C 2.738281 -0.769531 2.835938 -0.890625 2.921875 -1.046875 C 3.003906 -1.210938 3.0625 -1.421875 3.09375 -1.671875 C 3.132812 -1.929688 3.15625 -2.242188 3.15625 -2.609375 Z M 3.15625 -2.609375 "/>
</g>
<g id="glyph-2-4">
<path d="M 0.578125 -6.75 L 1.359375 -6.75 L 1.359375 -0.921875 L 1.296875 0 L 0.578125 0 Z M 4.03125 -2.59375 L 4.03125 -2.15625 C 4.03125 -1.78125 3.992188 -1.453125 3.921875 -1.171875 C 3.859375 -0.890625 3.757812 -0.65625 3.625 -0.46875 C 3.488281 -0.28125 3.320312 -0.140625 3.125 -0.046875 C 2.9375 0.0429688 2.71875 0.09375 2.46875 0.09375 C 2.21875 0.09375 2.003906 0.0390625 1.828125 -0.0625 C 1.648438 -0.164062 1.5 -0.3125 1.375 -0.5 C 1.257812 -0.6875 1.164062 -0.910156 1.09375 -1.171875 C 1.03125 -1.441406 0.984375 -1.742188 0.953125 -2.078125 L 0.953125 -2.671875 C 0.984375 -3.003906 1.03125 -3.304688 1.09375 -3.578125 C 1.164062 -3.847656 1.257812 -4.078125 1.375 -4.265625 C 1.5 -4.453125 1.648438 -4.59375 1.828125 -4.6875 C 2.003906 -4.789062 2.21875 -4.84375 2.46875 -4.84375 C 2.71875 -4.84375 2.9375 -4.796875 3.125 -4.703125 C 3.320312 -4.617188 3.488281 -4.484375 3.625 -4.296875 C 3.757812 -4.117188 3.859375 -3.890625 3.921875 -3.609375 C 3.992188 -3.328125 4.03125 -2.988281 4.03125 -2.59375 Z M 3.25 -2.15625 L 3.25 -2.59375 C 3.25 -2.851562 3.234375 -3.082031 3.203125 -3.28125 C 3.171875 -3.476562 3.113281 -3.640625 3.03125 -3.765625 C 2.957031 -3.898438 2.859375 -4 2.734375 -4.0625 C 2.609375 -4.125 2.453125 -4.15625 2.265625 -4.15625 C 2.097656 -4.15625 1.957031 -4.125 1.84375 -4.0625 C 1.726562 -4 1.625 -3.910156 1.53125 -3.796875 C 1.445312 -3.691406 1.378906 -3.566406 1.328125 -3.421875 C 1.273438 -3.285156 1.234375 -3.144531 1.203125 -3 L 1.203125 -1.75 C 1.242188 -1.550781 1.304688 -1.363281 1.390625 -1.1875 C 1.472656 -1.019531 1.582031 -0.878906 1.71875 -0.765625 C 1.863281 -0.660156 2.046875 -0.609375 2.265625 -0.609375 C 2.441406 -0.609375 2.59375 -0.632812 2.71875 -0.6875 C 2.84375 -0.75 2.941406 -0.84375 3.015625 -0.96875 C 3.097656 -1.101562 3.15625 -1.265625 3.1875 -1.453125 C 3.226562 -1.648438 3.25 -1.882812 3.25 -2.15625 Z M 3.25 -2.15625 "/>
</g>
<g id="glyph-2-5">
<path d="M 1.359375 -3.734375 L 1.359375 0 L 0.578125 0 L 0.578125 -4.75 L 1.3125 -4.75 Z M 1.171875 -2.5625 L 0.859375 -2.578125 C 0.859375 -2.898438 0.894531 -3.195312 0.96875 -3.46875 C 1.039062 -3.75 1.148438 -3.988281 1.296875 -4.1875 C 1.441406 -4.394531 1.613281 -4.554688 1.8125 -4.671875 C 2.019531 -4.785156 2.25 -4.84375 2.5 -4.84375 C 2.6875 -4.84375 2.859375 -4.8125 3.015625 -4.75 C 3.179688 -4.6875 3.316406 -4.582031 3.421875 -4.4375 C 3.535156 -4.300781 3.625 -4.125 3.6875 -3.90625 C 3.75 -3.695312 3.78125 -3.429688 3.78125 -3.109375 L 3.78125 0 L 3 0 L 3 -3.125 C 3 -3.375 2.96875 -3.570312 2.90625 -3.71875 C 2.851562 -3.875 2.769531 -3.984375 2.65625 -4.046875 C 2.550781 -4.117188 2.414062 -4.15625 2.25 -4.15625 C 2.101562 -4.15625 1.960938 -4.113281 1.828125 -4.03125 C 1.691406 -3.945312 1.578125 -3.828125 1.484375 -3.671875 C 1.390625 -3.523438 1.3125 -3.351562 1.25 -3.15625 C 1.195312 -2.96875 1.171875 -2.769531 1.171875 -2.5625 Z M 1.171875 -2.5625 "/>
</g>
<g id="glyph-2-6">
<path d="M 2.828125 -6.4375 L 2.828125 0 L 2.046875 0 L 2.046875 -5.421875 L 0.703125 -4.828125 L 0.703125 -5.5625 L 2.71875 -6.4375 Z M 2.828125 -6.4375 "/>
</g>
<g id="glyph-2-7">
<path d="M 1.359375 -0.96875 L 1.359375 -0.3125 C 1.359375 -0.0390625 1.289062 0.238281 1.15625 0.53125 C 1.019531 0.832031 0.832031 1.082031 0.59375 1.28125 L 0.125 0.953125 C 0.21875 0.828125 0.296875 0.695312 0.359375 0.5625 C 0.429688 0.425781 0.484375 0.285156 0.515625 0.140625 C 0.546875 0.00390625 0.5625 -0.140625 0.5625 -0.296875 L 0.5625 -0.96875 Z M 1.359375 -0.96875 "/>
</g>
<g id="glyph-2-8">
<path d="M 4.09375 -0.671875 L 4.09375 0 L 0.515625 0 L 0.515625 -0.578125 L 2.28125 -2.921875 C 2.5 -3.203125 2.660156 -3.441406 2.765625 -3.640625 C 2.878906 -3.847656 2.957031 -4.03125 3 -4.1875 C 3.050781 -4.351562 3.078125 -4.519531 3.078125 -4.6875 C 3.078125 -4.894531 3.039062 -5.082031 2.96875 -5.25 C 2.90625 -5.425781 2.804688 -5.5625 2.671875 -5.65625 C 2.546875 -5.757812 2.394531 -5.8125 2.21875 -5.8125 C 1.976562 -5.8125 1.78125 -5.753906 1.625 -5.640625 C 1.476562 -5.535156 1.367188 -5.382812 1.296875 -5.1875 C 1.234375 -5 1.203125 -4.773438 1.203125 -4.515625 L 0.421875 -4.515625 C 0.421875 -4.878906 0.484375 -5.207031 0.609375 -5.5 C 0.742188 -5.800781 0.945312 -6.039062 1.21875 -6.21875 C 1.488281 -6.394531 1.820312 -6.484375 2.21875 -6.484375 C 2.5625 -6.484375 2.851562 -6.410156 3.09375 -6.265625 C 3.34375 -6.128906 3.53125 -5.929688 3.65625 -5.671875 C 3.789062 -5.421875 3.859375 -5.125 3.859375 -4.78125 C 3.859375 -4.59375 3.832031 -4.398438 3.78125 -4.203125 C 3.726562 -4.015625 3.65625 -3.820312 3.5625 -3.625 C 3.476562 -3.4375 3.375 -3.25 3.25 -3.0625 C 3.132812 -2.882812 3.003906 -2.707031 2.859375 -2.53125 L 1.453125 -0.671875 Z M 4.09375 -0.671875 "/>
</g>
<g id="glyph-2-9">
<path d="M 4.171875 -2.15625 L 4.171875 -1.484375 L 0.265625 -1.484375 L 0.265625 -1.96875 L 2.640625 -6.40625 L 3.265625 -6.40625 L 2.640625 -5.109375 L 1.125 -2.15625 Z M 3.46875 -6.40625 L 3.46875 0 L 2.6875 0 L 2.6875 -6.40625 Z M 3.46875 -6.40625 "/>
</g>
<g id="glyph-2-10">
<path d="M 3.171875 -6.40625 L 3.21875 -6.40625 L 3.21875 -5.71875 L 3.171875 -5.71875 C 2.796875 -5.71875 2.488281 -5.644531 2.25 -5.5 C 2.019531 -5.363281 1.835938 -5.175781 1.703125 -4.9375 C 1.578125 -4.707031 1.488281 -4.445312 1.4375 -4.15625 C 1.382812 -3.875 1.359375 -3.582031 1.359375 -3.28125 L 1.359375 -2.34375 C 1.359375 -2.0625 1.382812 -1.8125 1.4375 -1.59375 C 1.5 -1.375 1.570312 -1.1875 1.65625 -1.03125 C 1.75 -0.882812 1.847656 -0.769531 1.953125 -0.6875 C 2.066406 -0.613281 2.1875 -0.578125 2.3125 -0.578125 C 2.457031 -0.578125 2.585938 -0.613281 2.703125 -0.6875 C 2.816406 -0.757812 2.910156 -0.859375 2.984375 -0.984375 C 3.066406 -1.117188 3.128906 -1.273438 3.171875 -1.453125 C 3.210938 -1.640625 3.234375 -1.835938 3.234375 -2.046875 C 3.234375 -2.234375 3.210938 -2.414062 3.171875 -2.59375 C 3.140625 -2.769531 3.085938 -2.925781 3.015625 -3.0625 C 2.941406 -3.207031 2.847656 -3.320312 2.734375 -3.40625 C 2.617188 -3.488281 2.484375 -3.53125 2.328125 -3.53125 C 2.148438 -3.53125 1.988281 -3.472656 1.84375 -3.359375 C 1.695312 -3.242188 1.570312 -3.097656 1.46875 -2.921875 C 1.375 -2.742188 1.316406 -2.550781 1.296875 -2.34375 L 0.90625 -2.359375 C 0.945312 -2.679688 1.015625 -2.957031 1.109375 -3.1875 C 1.203125 -3.425781 1.316406 -3.617188 1.453125 -3.765625 C 1.597656 -3.910156 1.753906 -4.019531 1.921875 -4.09375 C 2.097656 -4.164062 2.28125 -4.203125 2.46875 -4.203125 C 2.738281 -4.203125 2.96875 -4.140625 3.15625 -4.015625 C 3.351562 -3.898438 3.515625 -3.738281 3.640625 -3.53125 C 3.765625 -3.332031 3.851562 -3.109375 3.90625 -2.859375 C 3.96875 -2.609375 4 -2.351562 4 -2.09375 C 4 -1.789062 3.960938 -1.503906 3.890625 -1.234375 C 3.816406 -0.972656 3.707031 -0.742188 3.5625 -0.546875 C 3.425781 -0.347656 3.253906 -0.191406 3.046875 -0.078125 C 2.835938 0.0351562 2.59375 0.09375 2.3125 0.09375 C 2.007812 0.09375 1.75 0.0195312 1.53125 -0.125 C 1.3125 -0.269531 1.128906 -0.457031 0.984375 -0.6875 C 0.847656 -0.925781 0.742188 -1.191406 0.671875 -1.484375 C 0.609375 -1.773438 0.578125 -2.070312 0.578125 -2.375 L 0.578125 -2.75 C 0.578125 -3.195312 0.609375 -3.640625 0.671875 -4.078125 C 0.742188 -4.515625 0.867188 -4.90625 1.046875 -5.25 C 1.222656 -5.601562 1.484375 -5.882812 1.828125 -6.09375 C 2.171875 -6.300781 2.617188 -6.40625 3.171875 -6.40625 Z M 3.171875 -6.40625 "/>
</g>
<g id="glyph-2-11">
<path d="M 1.453125 -3.046875 L 0.828125 -3.21875 L 1.109375 -6.40625 L 3.890625 -6.40625 L 3.890625 -5.640625 L 1.765625 -5.640625 L 1.609375 -3.90625 C 1.710938 -3.976562 1.832031 -4.039062 1.96875 -4.09375 C 2.113281 -4.15625 2.28125 -4.1875 2.46875 -4.1875 C 2.71875 -4.1875 2.941406 -4.132812 3.140625 -4.03125 C 3.335938 -3.925781 3.503906 -3.78125 3.640625 -3.59375 C 3.773438 -3.40625 3.878906 -3.179688 3.953125 -2.921875 C 4.023438 -2.660156 4.0625 -2.367188 4.0625 -2.046875 C 4.0625 -1.734375 4.023438 -1.445312 3.953125 -1.1875 C 3.890625 -0.925781 3.785156 -0.703125 3.640625 -0.515625 C 3.492188 -0.328125 3.3125 -0.175781 3.09375 -0.0625 C 2.875 0.0390625 2.617188 0.09375 2.328125 0.09375 C 2.109375 0.09375 1.898438 0.0546875 1.703125 -0.015625 C 1.515625 -0.0859375 1.34375 -0.195312 1.1875 -0.34375 C 1.039062 -0.5 0.914062 -0.6875 0.8125 -0.90625 C 0.71875 -1.125 0.660156 -1.382812 0.640625 -1.6875 L 1.375 -1.6875 C 1.40625 -1.445312 1.460938 -1.242188 1.546875 -1.078125 C 1.628906 -0.910156 1.734375 -0.785156 1.859375 -0.703125 C 1.992188 -0.617188 2.148438 -0.578125 2.328125 -0.578125 C 2.472656 -0.578125 2.601562 -0.609375 2.71875 -0.671875 C 2.84375 -0.742188 2.945312 -0.84375 3.03125 -0.96875 C 3.113281 -1.09375 3.175781 -1.242188 3.21875 -1.421875 C 3.269531 -1.609375 3.296875 -1.8125 3.296875 -2.03125 C 3.296875 -2.226562 3.269531 -2.414062 3.21875 -2.59375 C 3.175781 -2.769531 3.109375 -2.921875 3.015625 -3.046875 C 2.929688 -3.171875 2.828125 -3.269531 2.703125 -3.34375 C 2.578125 -3.414062 2.4375 -3.453125 2.28125 -3.453125 C 2.0625 -3.453125 1.898438 -3.414062 1.796875 -3.34375 C 1.691406 -3.269531 1.578125 -3.171875 1.453125 -3.046875 Z M 1.453125 -3.046875 "/>
</g>
<g id="glyph-2-12">
<path d="M 1.515625 -3.59375 L 2.015625 -3.59375 C 2.234375 -3.59375 2.414062 -3.640625 2.5625 -3.734375 C 2.707031 -3.835938 2.816406 -3.96875 2.890625 -4.125 C 2.960938 -4.289062 3 -4.476562 3 -4.6875 C 3 -4.9375 2.96875 -5.144531 2.90625 -5.3125 C 2.84375 -5.476562 2.742188 -5.601562 2.609375 -5.6875 C 2.484375 -5.769531 2.328125 -5.8125 2.140625 -5.8125 C 1.953125 -5.8125 1.789062 -5.765625 1.65625 -5.671875 C 1.519531 -5.585938 1.414062 -5.460938 1.34375 -5.296875 C 1.269531 -5.140625 1.234375 -4.945312 1.234375 -4.71875 L 0.46875 -4.71875 C 0.46875 -5.050781 0.535156 -5.347656 0.671875 -5.609375 C 0.804688 -5.878906 1 -6.09375 1.25 -6.25 C 1.5 -6.40625 1.796875 -6.484375 2.140625 -6.484375 C 2.460938 -6.484375 2.742188 -6.414062 2.984375 -6.28125 C 3.234375 -6.144531 3.425781 -5.941406 3.5625 -5.671875 C 3.707031 -5.410156 3.78125 -5.078125 3.78125 -4.671875 C 3.78125 -4.515625 3.75 -4.34375 3.6875 -4.15625 C 3.625 -3.976562 3.523438 -3.804688 3.390625 -3.640625 C 3.265625 -3.484375 3.097656 -3.351562 2.890625 -3.25 C 2.679688 -3.15625 2.425781 -3.109375 2.125 -3.109375 L 1.515625 -3.109375 Z M 1.515625 -2.9375 L 1.515625 -3.421875 L 2.125 -3.421875 C 2.476562 -3.421875 2.769531 -3.367188 3 -3.265625 C 3.226562 -3.171875 3.398438 -3.039062 3.515625 -2.875 C 3.640625 -2.71875 3.726562 -2.539062 3.78125 -2.34375 C 3.832031 -2.15625 3.859375 -1.96875 3.859375 -1.78125 C 3.859375 -1.488281 3.8125 -1.222656 3.71875 -0.984375 C 3.632812 -0.753906 3.515625 -0.554688 3.359375 -0.390625 C 3.203125 -0.234375 3.019531 -0.113281 2.8125 -0.03125 C 2.601562 0.0507812 2.375 0.09375 2.125 0.09375 C 1.882812 0.09375 1.660156 0.0507812 1.453125 -0.03125 C 1.253906 -0.113281 1.078125 -0.226562 0.921875 -0.375 C 0.765625 -0.53125 0.644531 -0.71875 0.5625 -0.9375 C 0.476562 -1.15625 0.4375 -1.40625 0.4375 -1.6875 L 1.203125 -1.6875 C 1.203125 -1.46875 1.238281 -1.273438 1.3125 -1.109375 C 1.382812 -0.941406 1.488281 -0.8125 1.625 -0.71875 C 1.769531 -0.625 1.9375 -0.578125 2.125 -0.578125 C 2.320312 -0.578125 2.488281 -0.617188 2.625 -0.703125 C 2.769531 -0.796875 2.878906 -0.925781 2.953125 -1.09375 C 3.035156 -1.269531 3.078125 -1.492188 3.078125 -1.765625 C 3.078125 -2.035156 3.03125 -2.253906 2.9375 -2.421875 C 2.851562 -2.597656 2.734375 -2.726562 2.578125 -2.8125 C 2.421875 -2.894531 2.234375 -2.9375 2.015625 -2.9375 Z M 1.515625 -2.9375 "/>
</g>
</g>
<clipPath id="clip-0">
<path clip-rule="nonzero" d="M 46.238281 297 L 494.035156 297 L 494.035156 298 L 46.238281 298 Z M 46.238281 297 "/>
</clipPath>
<clipPath id="clip-1">
<path clip-rule="nonzero" d="M 46.238281 228 L 494.035156 228 L 494.035156 229 L 46.238281 229 Z M 46.238281 228 "/>
</clipPath>
<clipPath id="clip-2">
<path clip-rule="nonzero" d="M 46.238281 158 L 494.035156 158 L 494.035156 160 L 46.238281 160 Z M 46.238281 158 "/>
</clipPath>
<clipPath id="clip-3">
<path clip-rule="nonzero" d="M 46.238281 89 L 494.035156 89 L 494.035156 91 L 46.238281 91 Z M 46.238281 89 "/>
</clipPath>
<clipPath id="clip-4">
<path clip-rule="nonzero" d="M 46.238281 20 L 494.035156 20 L 494.035156 22 L 46.238281 22 Z M 46.238281 20 "/>
</clipPath>
</defs>
<rect x="-50.4" y="-34.7" width="604.8" height="416.4" fill="rgb(100%, 100%, 100%)" fill-opacity="1"/>
<rect x="-50.4" y="-34.7" width="604.8" height="416.4" fill="rgb(100%, 100%, 100%)" fill-opacity="1"/>
<g clip-path="url(#clip-0)">
<path fill="none" stroke-width="0.426791" stroke-linecap="butt" stroke-linejoin="round" stroke="rgb(92.156863%, 92.156863%, 92.156863%)" stroke-opacity="1" stroke-miterlimit="10" d="M 46.238281 297.386719 L 494.039062 297.386719 "/>
</g>
<g clip-path="url(#clip-1)">
<path fill="none" stroke-width="0.426791" stroke-linecap="butt" stroke-linejoin="round" stroke="rgb(92.156863%, 92.156863%, 92.156863%)" stroke-opacity="1" stroke-miterlimit="10" d="M 46.238281 228.265625 L 494.039062 228.265625 "/>
</g>
<g clip-path="url(#clip-2)">
<path fill="none" stroke-width="0.426791" stroke-linecap="butt" stroke-linejoin="round" stroke="rgb(92.156863%, 92.156863%, 92.156863%)" stroke-opacity="1" stroke-miterlimit="10" d="M 46.238281 159.148438 L 494.039062 159.148438 "/>
</g>
<g clip-path="url(#clip-3)">
<path fill="none" stroke-width="0.426791" stroke-linecap="butt" stroke-linejoin="round" stroke="rgb(92.156863%, 92.156863%, 92.156863%)" stroke-opacity="1" stroke-miterlimit="10" d="M 46.238281 90.03125 L 494.039062 90.03125 "/>
</g>
<g clip-path="url(#clip-4)">
<path fill="none" stroke-width="0.426791" stroke-linecap="butt" stroke-linejoin="round" stroke="rgb(92.156863%, 92.156863%, 92.156863%)" stroke-opacity="1" stroke-miterlimit="10" d="M 46.238281 20.910156 L 494.039062 20.910156 "/>
</g>
<path fill="none" stroke-width="2.560748" stroke-linecap="butt" stroke-linejoin="round" stroke="rgb(1.568627%, 63.921569%, 74.117647%)" stroke-opacity="1" stroke-miterlimit="10" d="M 70.226562 307.589844 L 150.191406 222.480469 L 310.121094 97.285156 L 470.046875 24.136719 "/>
<path fill-rule="nonzero" fill="rgb(100%, 100%, 100%)" fill-opacity="1" stroke-width="0.678986" stroke-linecap="round" stroke-linejoin="round" stroke="rgb(1.568627%, 63.921569%, 74.117647%)" stroke-opacity="1" stroke-miterlimit="10" d="M 59.523438 314.589844 L 80.933594 314.589844 L 80.859375 314.585938 L 81.148438 314.574219 L 81.429688 314.515625 L 81.699219 314.414062 L 81.949219 314.269531 L 82.171875 314.089844 L 82.363281 313.871094 L 82.519531 313.628906 L 82.632812 313.363281 L 82.703125 313.082031 L 82.722656 312.796875 L 82.722656 302.378906 L 82.703125 302.09375 L 82.632812 301.8125 L 82.519531 301.546875 L 82.363281 301.304688 L 82.171875 301.089844 L 81.949219 300.90625 L 81.699219 300.761719 L 81.429688 300.660156 L 81.148438 300.601562 L 80.933594 300.589844 L 59.523438 300.589844 L 59.742188 300.601562 L 59.453125 300.589844 L 59.164062 300.625 L 58.890625 300.703125 L 58.628906 300.828125 L 58.390625 300.992188 L 58.183594 301.191406 L 58.007812 301.421875 L 57.875 301.679688 L 57.785156 301.953125 L 57.738281 302.238281 L 57.730469 302.378906 L 57.730469 312.796875 L 57.738281 312.652344 L 57.738281 312.941406 L 57.785156 313.226562 L 57.875 313.5 L 58.007812 313.753906 L 58.183594 313.984375 L 58.390625 314.183594 L 58.628906 314.347656 L 58.890625 314.472656 L 59.164062 314.550781 L 59.453125 314.585938 Z M 59.523438 314.589844 "/>
<g fill="rgb(1.568627%, 63.921569%, 74.117647%)" fill-opacity="1">
<use xlink:href="#glyph-0-1" x="58.726562" y="310.828125"/>
<use xlink:href="#glyph-0-1" x="63.726562" y="310.828125"/>
<use xlink:href="#glyph-0-2" x="68.726562" y="310.828125"/>
<use xlink:href="#glyph-0-3" x="73.726562" y="310.828125"/>
<use xlink:href="#glyph-0-4" x="76.726562" y="310.828125"/>
</g>
<path fill-rule="nonzero" fill="rgb(100%, 100%, 100%)" fill-opacity="1" stroke-width="0.678986" stroke-linecap="round" stroke-linejoin="round" stroke="rgb(1.568627%, 63.921569%, 74.117647%)" stroke-opacity="1" stroke-miterlimit="10" d="M 455.84375 31.136719 L 484.25 31.136719 L 484.179688 31.132812 L 484.46875 31.121094 L 484.75 31.066406 L 485.019531 30.960938 L 485.269531 30.816406 L 485.492188 30.636719 L 485.683594 30.417969 L 485.839844 30.175781 L 485.953125 29.910156 L 486.019531 29.628906 L 486.042969 29.34375 L 486.042969 18.929688 L 486.019531 18.640625 L 485.953125 18.359375 L 485.839844 18.09375 L 485.683594 17.851562 L 485.492188 17.636719 L 485.269531 17.453125 L 485.019531 17.308594 L 484.75 17.207031 L 484.46875 17.148438 L 484.25 17.136719 L 455.84375 17.136719 L 456.058594 17.148438 L 455.773438 17.136719 L 455.484375 17.171875 L 455.207031 17.25 L 454.949219 17.375 L 454.710938 17.539062 L 454.503906 17.738281 L 454.328125 17.96875 L 454.195312 18.226562 L 454.105469 18.5 L 454.058594 18.785156 L 454.050781 18.929688 L 454.050781 29.34375 L 454.058594 29.199219 L 454.058594 29.488281 L 454.105469 29.773438 L 454.195312 30.046875 L 454.328125 30.300781 L 454.503906 30.53125 L 454.710938 30.730469 L 454.949219 30.894531 L 455.207031 31.019531 L 455.484375 31.097656 L 455.773438 31.132812 Z M 455.84375 31.136719 "/>
<g fill="rgb(1.568627%, 63.921569%, 74.117647%)" fill-opacity="1">
<use xlink:href="#glyph-0-5" x="455.046875" y="27.375"/>
<use xlink:href="#glyph-0-6" x="460.046875" y="27.375"/>
<use xlink:href="#glyph-0-4" x="462.046875" y="27.375"/>
<use xlink:href="#glyph-0-7" x="467.046875" y="27.375"/>
<use xlink:href="#glyph-0-2" x="472.046875" y="27.375"/>
<use xlink:href="#glyph-0-3" x="477.046875" y="27.375"/>
<use xlink:href="#glyph-0-1" x="480.046875" y="27.375"/>
</g>
<path fill-rule="nonzero" fill="rgb(100%, 100%, 100%)" fill-opacity="1" stroke-width="0.533489" stroke-linecap="round" stroke-linejoin="round" stroke="rgb(1.568627%, 63.921569%, 74.117647%)" stroke-opacity="1" stroke-miterlimit="10" d="M 312.523438 93.238281 L 335.191406 93.238281 L 335.105469 93.238281 L 335.453125 93.222656 L 335.792969 93.15625 L 336.117188 93.03125 L 336.417969 92.859375 L 336.6875 92.636719 L 336.917969 92.378906 L 337.105469 92.082031 L 337.238281 91.765625 L 337.324219 91.425781 L 337.351562 91.078125 L 337.351562 84.410156 L 337.324219 84.066406 L 337.238281 83.726562 L 337.105469 83.40625 L 336.917969 83.113281 L 336.6875 82.851562 L 336.417969 82.632812 L 336.117188 82.460938 L 335.792969 82.335938 L 335.453125 82.265625 L 335.191406 82.25 L 312.523438 82.25 L 312.78125 82.265625 L 312.4375 82.253906 L 312.089844 82.292969 L 311.757812 82.390625 L 311.441406 82.539062 L 311.15625 82.738281 L 310.90625 82.980469 L 310.695312 83.257812 L 310.535156 83.566406 L 310.425781 83.894531 L 310.371094 84.238281 L 310.363281 84.410156 L 310.363281 91.078125 L 310.371094 90.90625 L 310.371094 91.253906 L 310.425781 91.597656 L 310.535156 91.925781 L 310.695312 92.234375 L 310.90625 92.511719 L 311.15625 92.753906 L 311.441406 92.949219 L 311.757812 93.101562 L 312.089844 93.195312 L 312.4375 93.238281 Z M 312.523438 93.238281 "/>
<g fill="rgb(1.568627%, 63.921569%, 74.117647%)" fill-opacity="1">
<use xlink:href="#glyph-1-1" x="311.855469" y="91.512695"/>
<use xlink:href="#glyph-1-2" x="316.855469" y="91.512695"/>
<use xlink:href="#glyph-1-3" x="322.855469" y="91.512695"/>
<use xlink:href="#glyph-1-4" x="325.855469" y="91.512695"/>
<use xlink:href="#glyph-1-5" x="330.855469" y="91.512695"/>
</g>
<g fill="rgb(30.196078%, 30.196078%, 30.196078%)" fill-opacity="1">
<use xlink:href="#glyph-2-1" x="15.960938" y="300.236328"/>
<use xlink:href="#glyph-2-2" x="19.960938" y="300.236328"/>
<use xlink:href="#glyph-2-3" x="23.960938" y="300.236328"/>
<use xlink:href="#glyph-2-3" x="27.960938" y="300.236328"/>
<use xlink:href="#glyph-2-4" x="31.960938" y="300.236328"/>
<use xlink:href="#glyph-2-5" x="35.960938" y="300.236328"/>
</g>
<g fill="rgb(30.196078%, 30.196078%, 30.196078%)" fill-opacity="1">
<use xlink:href="#glyph-2-1" x="9.960938" y="231.115234"/>
<use xlink:href="#glyph-2-6" x="13.960938" y="231.115234"/>
<use xlink:href="#glyph-2-7" x="17.960938" y="231.115234"/>
<use xlink:href="#glyph-2-3" x="19.960938" y="231.115234"/>
<use xlink:href="#glyph-2-3" x="23.960938" y="231.115234"/>
<use xlink:href="#glyph-2-3" x="27.960938" y="231.115234"/>
<use xlink:href="#glyph-2-4" x="31.960938" y="231.115234"/>
<use xlink:href="#glyph-2-5" x="35.960938" y="231.115234"/>
</g>
<g fill="rgb(30.196078%, 30.196078%, 30.196078%)" fill-opacity="1">
<use xlink:href="#glyph-2-1" x="9.960938" y="161.998047"/>
<use xlink:href="#glyph-2-6" x="13.960938" y="161.998047"/>
<use xlink:href="#glyph-2-7" x="17.960938" y="161.998047"/>
<use xlink:href="#glyph-2-8" x="19.960938" y="161.998047"/>
<use xlink:href="#glyph-2-3" x="23.960938" y="161.998047"/>
<use xlink:href="#glyph-2-3" x="27.960938" y="161.998047"/>
<use xlink:href="#glyph-2-4" x="31.960938" y="161.998047"/>
<use xlink:href="#glyph-2-5" x="35.960938" y="161.998047"/>
</g>
<g fill="rgb(30.196078%, 30.196078%, 30.196078%)" fill-opacity="1">
<use xlink:href="#glyph-2-1" x="9.960938" y="92.880859"/>
<use xlink:href="#glyph-2-6" x="13.960938" y="92.880859"/>
<use xlink:href="#glyph-2-7" x="17.960938" y="92.880859"/>
<use xlink:href="#glyph-2-9" x="19.960938" y="92.880859"/>
<use xlink:href="#glyph-2-3" x="23.960938" y="92.880859"/>
<use xlink:href="#glyph-2-3" x="27.960938" y="92.880859"/>
<use xlink:href="#glyph-2-4" x="31.960938" y="92.880859"/>
<use xlink:href="#glyph-2-5" x="35.960938" y="92.880859"/>
</g>
<g fill="rgb(30.196078%, 30.196078%, 30.196078%)" fill-opacity="1">
<use xlink:href="#glyph-2-1" x="9.960938" y="23.759766"/>
<use xlink:href="#glyph-2-6" x="13.960938" y="23.759766"/>
<use xlink:href="#glyph-2-7" x="17.960938" y="23.759766"/>
<use xlink:href="#glyph-2-10" x="19.960938" y="23.759766"/>
<use xlink:href="#glyph-2-3" x="23.960938" y="23.759766"/>
<use xlink:href="#glyph-2-3" x="27.960938" y="23.759766"/>
<use xlink:href="#glyph-2-4" x="31.960938" y="23.759766"/>
<use xlink:href="#glyph-2-5" x="35.960938" y="23.759766"/>
</g>
<g fill="rgb(30.196078%, 30.196078%, 30.196078%)" fill-opacity="1">
<use xlink:href="#glyph-2-8" x="62.226562" y="334.388672"/>
<use xlink:href="#glyph-2-3" x="66.226562" y="334.388672"/>
<use xlink:href="#glyph-2-8" x="70.226562" y="334.388672"/>
<use xlink:href="#glyph-2-11" x="74.226562" y="334.388672"/>
</g>
<g fill="rgb(30.196078%, 30.196078%, 30.196078%)" fill-opacity="1">
<use xlink:href="#glyph-2-8" x="142.191406" y="334.388672"/>
<use xlink:href="#glyph-2-3" x="146.191406" y="334.388672"/>
<use xlink:href="#glyph-2-12" x="150.191406" y="334.388672"/>
<use xlink:href="#glyph-2-3" x="154.191406" y="334.388672"/>
</g>
<g fill="rgb(30.196078%, 30.196078%, 30.196078%)" fill-opacity="1">
<use xlink:href="#glyph-2-8" x="222.15625" y="334.388672"/>
<use xlink:href="#glyph-2-3" x="226.15625" y="334.388672"/>
<use xlink:href="#glyph-2-12" x="230.15625" y="334.388672"/>
<use xlink:href="#glyph-2-11" x="234.15625" y="334.388672"/>
</g>
<g fill="rgb(30.196078%, 30.196078%, 30.196078%)" fill-opacity="1">
<use xlink:href="#glyph-2-8" x="302.121094" y="334.388672"/>
<use xlink:href="#glyph-2-3" x="306.121094" y="334.388672"/>
<use xlink:href="#glyph-2-9" x="310.121094" y="334.388672"/>
<use xlink:href="#glyph-2-3" x="314.121094" y="334.388672"/>
</g>
<g fill="rgb(30.196078%, 30.196078%, 30.196078%)" fill-opacity="1">
<use xlink:href="#glyph-2-8" x="382.085938" y="334.388672"/>
<use xlink:href="#glyph-2-3" x="386.085938" y="334.388672"/>
<use xlink:href="#glyph-2-9" x="390.085938" y="334.388672"/>
<use xlink:href="#glyph-2-11" x="394.085938" y="334.388672"/>
</g>
<g fill="rgb(30.196078%, 30.196078%, 30.196078%)" fill-opacity="1">
<use xlink:href="#glyph-2-8" x="462.046875" y="334.388672"/>
<use xlink:href="#glyph-2-3" x="466.046875" y="334.388672"/>
<use xlink:href="#glyph-2-11" x="470.046875" y="334.388672"/>
<use xlink:href="#glyph-2-3" x="474.046875" y="334.388672"/>
</g>
</svg>
